<svg width="180" height="91" viewBox="0 0 800 600" fill="none" xmlns="http://www.w3.org/2000/svg">
<path d="M73.8866 245.781L85.3058 280.926C85.8446 282.584 87.3897 283.706 89.1331 283.706H126.087C129.985 283.706 131.606 288.695 128.452 290.986L98.556 312.707C97.1455 313.732 96.5553 315.548 97.0941 317.206L108.513 352.351C109.718 356.059 105.475 359.142 102.321 356.85L72.4247 335.13C71.0142 334.105 69.1043 334.105 67.6939 335.13L37.7979 356.85C34.644 359.142 30.4005 356.059 31.6052 352.351L43.0245 317.206C43.5632 315.548 42.973 313.732 41.5626 312.707L11.6666 290.986C8.51271 288.695 10.1336 283.706 14.032 283.706H50.9855C52.7289 283.706 54.274 282.584 54.8127 280.926L66.232 245.781C67.4367 242.073 72.6819 242.073 73.8866 245.781Z" fill="#C4B6FF" stroke="#221b38" stroke-width="1"></path>
<path d="M238.855 245.781L250.275 280.926C250.813 282.584 252.358 283.706 254.102 283.706H291.055C294.954 283.706 296.575 288.695 293.421 290.986L263.525 312.707C262.114 313.732 261.524 315.548 262.063 317.206L273.482 352.351C274.687 356.059 270.443 359.142 267.289 356.85L237.393 335.13C235.983 334.105 234.073 334.105 232.663 335.13L202.767 356.85C199.613 359.142 195.369 356.059 196.574 352.351L207.993 317.206C208.532 315.548 207.942 313.732 206.531 312.707L176.635 290.986C173.481 288.695 175.102 283.706 179.001 283.706H215.954C217.698 283.706 219.243 282.584 219.781 280.926L231.201 245.781C232.405 242.073 237.651 242.073 238.855 245.781Z" fill="#C4B6FF" stroke="#221b38" stroke-width="1"></path>
<path d="M403.828 245.781L415.247 280.926C415.786 282.584 417.331 283.706 419.075 283.706H456.028C459.926 283.706 461.547 288.695 458.393 290.986L428.497 312.707C427.087 313.732 426.497 315.548 427.035 317.206L438.455 352.351C439.659 356.059 435.416 359.142 432.262 356.85L402.366 335.13C400.956 334.105 399.046 334.105 397.635 335.13L367.739 356.85C364.585 359.142 360.342 356.059 361.547 352.351L372.966 317.206C373.505 315.548 372.914 313.732 371.504 312.707L341.608 290.986C338.454 288.695 340.075 283.706 343.973 283.706H380.927C382.67 283.706 384.215 282.584 384.754 280.926L396.173 245.781C397.378 242.073 402.623 242.073 403.828 245.781Z" fill="#C4B6FF" stroke="#221b38" stroke-width="1"></path>
<path d="M568.797 245.781L580.216 280.926C580.755 282.584 582.3 283.706 584.043 283.706H620.997C624.895 283.706 626.516 288.695 623.362 290.986L593.466 312.707C592.056 313.732 591.466 315.548 592.004 317.206L603.424 352.351C604.628 356.059 600.385 359.142 597.231 356.85L567.335 335.13C565.924 334.105 564.015 334.105 562.604 335.13L532.708 356.85C529.554 359.142 525.311 356.059 526.515 352.351L537.935 317.206C538.473 315.548 537.883 313.732 536.473 312.707L506.577 290.986C503.423 288.695 505.044 283.706 508.942 283.706H545.896C547.639 283.706 549.184 282.584 549.723 280.926L561.142 245.781C562.347 242.073 567.592 242.073 568.797 245.781Z" fill="#B5CDFB" stroke="#221b38" stroke-width="1"></path>
<path d="M733.769 245.781L745.189 280.926C745.727 282.584 747.273 283.706 749.016 283.706H785.969C789.868 283.706 791.489 288.695 788.335 290.986L758.439 312.707C757.028 313.732 756.438 315.548 756.977 317.206L768.396 352.351C769.601 356.059 765.357 359.142 762.204 356.85L732.307 335.13C730.897 334.105 728.987 334.105 727.577 335.13L697.681 356.85C694.527 359.142 690.283 356.059 691.488 352.351L702.907 317.206C703.446 315.548 702.856 313.732 701.445 312.707L671.549 290.986C668.396 288.695 670.016 283.706 673.915 283.706H710.868C712.612 283.706 714.157 282.584 714.696 280.926L726.115 245.781C727.32 242.073 732.565 242.073 733.769 245.781Z" fill="#7D55FF" stroke="#221b38" stroke-width="1"></path>
</svg>